<svg width="400" height="80" viewBox="0 0 400 80" fill="none" xmlns="http://www.w3.org/2000/svg">
<path d="M355.379 51.7806C355.379 42.1675 361.719 37.3609 374.397 37.3609C378.475 37.3609 382.552 37.6586 386.629 38.2538V33.8341C386.629 28.4472 382.418 25.7538 373.996 25.7538C369.174 25.7538 364.234 26.4978 359.174 27.9859V21.2895C364.234 19.8014 369.174 19.0574 373.996 19.0574C387.924 19.0574 394.888 23.9086 394.888 33.6109V65.9324H390.246L387.388 61.2895C382.716 64.3847 377.626 65.9324 372.121 65.9324C360.96 65.9324 355.379 61.2151 355.379 51.7806ZM374.397 44.0574C367.225 44.0574 363.638 46.5871 363.638 51.6466C363.638 56.7062 366.466 59.2359 372.121 59.2359C377.835 59.2359 382.671 57.7181 386.629 54.6824V44.9502C382.552 44.355 378.475 44.0574 374.397 44.0574Z" fill="#955F3E"/>
<path d="M330.022 11.4681H335.201L336.987 19.0574H349.665V25.7538H338.281V52.6734C338.281 57.0484 340.171 59.2359 343.951 59.2359H349.665V65.9324H341.808C333.951 65.9324 330.022 61.7211 330.022 53.2984V11.4681Z" fill="#955F3E"/>
<path d="M304.665 11.4681H309.844L311.629 19.0574H324.308V25.7538H312.924V52.6734C312.924 57.0484 314.814 59.2359 318.594 59.2359H324.308V65.9324H316.451C308.594 65.9324 304.665 61.7211 304.665 53.2984V11.4681Z" fill="#955F3E"/>
<path d="M259.442 51.7806C259.442 42.1675 265.781 37.3609 278.46 37.3609C282.537 37.3609 286.615 37.6586 290.692 38.2538V33.8341C290.692 28.4472 286.481 25.7538 278.058 25.7538C273.237 25.7538 268.296 26.4978 263.237 27.9859V21.2895C268.296 19.8014 273.237 19.0574 278.058 19.0574C291.987 19.0574 298.951 23.9086 298.951 33.6109V65.9324H294.308L291.451 61.2895C286.778 64.3847 281.689 65.9324 276.183 65.9324C265.022 65.9324 259.442 61.2151 259.442 51.7806ZM278.46 44.0574C271.287 44.0574 267.701 46.5871 267.701 51.6466C267.701 56.7062 270.528 59.2359 276.183 59.2359C281.897 59.2359 286.734 57.7181 290.692 54.6824V44.9502C286.615 44.355 282.537 44.0574 278.46 44.0574Z" fill="#955F3E"/>
<path d="M208.192 2.09308V65.9323H199.933V2.09308H208.192ZM253.103 2.09308C246.02 12.5435 223.21 32.227 223.21 32.227C233.761 43.8798 246.144 61.4476 260.993 67.6466C278.188 74.8255 306.927 70.7872 306.927 70.7872C306.927 70.7872 297.128 77.9069 280.758 77.9069C268.153 77.9069 253.713 75.6212 244.015 66.5038C233.385 56.5107 224.739 46.1317 215.085 35.2181V30.2181C215.085 30.2181 239.04 8.67996 242.656 2.09308H253.103Z" fill="url(#paint0_linear_195_197)"/>
<path d="M172.344 65.9324V19.0574H177.924L179.397 25.0395C183.504 21.0514 188.445 19.0574 194.219 19.0574V25.9324C188.623 25.9324 184.085 27.9115 180.603 31.8699V65.9324H172.344Z" fill="#955F3E"/>
<path d="M146.629 19.0574C159.963 19.0574 166.629 25.6496 166.629 38.8341C166.629 40.7091 166.496 42.7181 166.228 44.8609H133.326C133.326 54.4443 138.921 59.2359 150.112 59.2359C155.439 59.2359 160.171 58.6407 164.308 57.4502V64.1466C160.171 65.3371 155.141 65.9324 149.219 65.9324C133.118 65.9324 125.067 57.9413 125.067 41.9591C125.067 26.6913 132.254 19.0574 146.629 19.0574ZM133.326 37.9859H158.683C158.504 29.7716 154.487 25.6645 146.629 25.6645C138.296 25.6645 133.862 29.7716 133.326 37.9859Z" fill="#955F3E"/>
<path d="M99.3526 19.0574C112.686 19.0574 119.353 25.6496 119.353 38.8341C119.353 40.7091 119.219 42.7181 118.951 44.8609H86.0491C86.0491 54.4443 91.6443 59.2359 102.835 59.2359C108.162 59.2359 112.894 58.6407 117.031 57.4502V64.1466C112.894 65.3371 107.865 65.9324 101.942 65.9324C85.8407 65.9324 77.7901 57.9413 77.7901 41.9591C77.7901 26.6913 84.9776 19.0574 99.3526 19.0574ZM86.0491 37.9859H111.406C111.228 29.7716 107.21 25.6645 99.3526 25.6645C91.0193 25.6645 86.5848 29.7716 86.0491 37.9859Z" fill="#955F3E"/>
<path d="M5.11157 65.9324V2.09308H15.6026L39.0401 55.352L62.0312 2.09308H72.0759V65.9324H64.7098V13.5663L42.0312 65.9324H35.5134L12.4776 13.5663V65.9324H5.11157Z" fill="#955F3E"/>
<defs>
<linearGradient id="paint0_linear_195_197" x1="199.933" y1="72.8603" x2="302.511" y2="72.8603" gradientUnits="userSpaceOnUse">
<stop offset="0.798077" stop-color="#955F3E"/>
<stop offset="1" stop-color="#2F1E14"/>
</linearGradient>
</defs>
</svg>
